<svg width="252" height="43" viewBox="0 0 252 43" fill="none" xmlns="http://www.w3.org/2000/svg">
<path d="M2.00004 26L30 2L58 26" stroke="black" stroke-width="4" stroke-linecap="round" stroke-linejoin="round"/>
<path d="M30 2V38" stroke="black" stroke-width="4"/>
<path d="M14 15C15.6569 15 17 13.6569 17 12C17 10.3431 15.6569 9 14 9C12.3432 9 11 10.3431 11 12C11 13.6569 12.3432 15 14 15Z" fill="#FF6600"/>
<path d="M6.00004 21C7.65689 21 9.00004 19.6569 9.00004 18C9.00004 16.3431 7.65689 15 6.00004 15C4.34318 15 3.00004 16.3431 3.00004 18C3.00004 19.6569 4.34318 21 6.00004 21Z" fill="#FF6600"/>
<path d="M14 12L22 16" stroke="#FF6600" stroke-width="2"/>
<path d="M6.00004 18L22 20" stroke="#FF6600" stroke-width="2"/>
<path d="M26 24H22V34H26V24Z" fill="#FF6600"/>
<path d="M32 20H28V34H32V20Z" fill="#FF6600"/>
<path d="M38 16H34V34H38V16Z" fill="#FF6600"/>
<path d="M44 22H40V34H44V22Z" fill="#FF6600"/>
<path d="M22 40L26 34L30 42L34 34L38 40" stroke="#6ECFFF" stroke-width="2" stroke-linecap="round" stroke-linejoin="round"/>
<path d="M56 36C60.4183 36 64 32.4183 64 28C64 23.5817 60.4183 20 56 20C51.5818 20 48 23.5817 48 28C48 32.4183 51.5818 36 56 36Z" stroke="#FF6600" stroke-width="3"/>
<path d="M56 31C57.6569 31 59 29.6569 59 28C59 26.3431 57.6569 25 56 25C54.3432 25 53 26.3431 53 28C53 29.6569 54.3432 31 56 31Z" fill="#6ECFFF"/>
<path d="M79.5057 14.1861L80.1023 10.6364H96.8267L96.2302 14.1861H89.9958L87.2117 31H82.956L85.7401 14.1861H79.5057ZM96.2003 31L99.581 10.6364H113.303L112.706 14.1861H103.29L102.494 19.0384H111.205L110.608 22.5881H101.898L101.102 27.4503H110.558L109.962 31H96.2003ZM133.49 17.7656H129.194C129.208 17.1955 129.135 16.6918 128.976 16.2543C128.816 15.8101 128.578 15.4323 128.26 15.1207C127.948 14.8092 127.567 14.5739 127.116 14.4148C126.665 14.2491 126.158 14.1662 125.595 14.1662C124.508 14.1662 123.51 14.438 122.602 14.9815C121.694 15.5251 120.928 16.3139 120.305 17.348C119.682 18.3755 119.251 19.6184 119.012 21.0767C118.78 22.482 118.794 23.6586 119.052 24.6065C119.311 25.5545 119.768 26.2704 120.424 26.7543C121.087 27.2315 121.913 27.4702 122.9 27.4702C123.51 27.4702 124.09 27.3939 124.64 27.2415C125.19 27.0824 125.691 26.857 126.142 26.5653C126.599 26.267 126.997 25.9058 127.335 25.4815C127.68 25.0573 127.948 24.5767 128.14 24.0398H132.466C132.194 24.9744 131.77 25.8759 131.193 26.7443C130.623 27.6127 129.917 28.3883 129.075 29.071C128.233 29.7472 127.275 30.2841 126.201 30.6818C125.128 31.0795 123.951 31.2784 122.672 31.2784C120.822 31.2784 119.235 30.8542 117.909 30.0057C116.59 29.1572 115.638 27.9342 115.055 26.3366C114.472 24.7391 114.362 22.8134 114.727 20.5597C115.092 18.3788 115.804 16.5294 116.865 15.0114C117.932 13.4867 119.228 12.33 120.753 11.5412C122.284 10.7524 123.921 10.358 125.664 10.358C126.878 10.358 127.975 10.5237 128.956 10.8551C129.937 11.1866 130.772 11.6705 131.461 12.3068C132.157 12.9366 132.681 13.7088 133.032 14.6236C133.384 15.5384 133.536 16.5857 133.49 17.7656ZM134.4 31L137.78 10.6364H142.086L140.694 19.0384H149.434L150.826 10.6364H155.121L151.74 31H147.445L148.837 22.5881H140.097L138.705 31H134.4Z" fill="black"/>
<path d="M152.497 31L155.878 10.6364H160.183L158.791 19.0384H167.531L168.923 10.6364H173.219L169.838 31H165.543L166.935 22.5881H158.195L156.803 31H152.497ZM193.751 21.0966C193.38 23.2708 192.661 25.117 191.594 26.6349C190.533 28.1529 189.237 29.3063 187.706 30.0952C186.181 30.884 184.537 31.2784 182.774 31.2784C180.925 31.2784 179.331 30.8575 177.992 30.0156C176.659 29.1738 175.695 27.9574 175.098 26.3665C174.501 24.7689 174.389 22.8433 174.76 20.5895C175.118 18.4086 175.831 16.5592 176.898 15.0412C177.965 13.5166 179.268 12.3565 180.805 11.5611C182.343 10.759 183.997 10.358 185.767 10.358C187.603 10.358 189.188 10.7822 190.52 11.6307C191.859 12.4792 192.823 13.7055 193.413 15.3097C194.01 16.9072 194.123 18.8362 193.751 21.0966ZM189.466 20.5895C189.698 19.1908 189.688 18.0175 189.436 17.0696C189.191 16.1151 188.74 15.3925 188.084 14.902C187.428 14.4115 186.599 14.1662 185.598 14.1662C184.511 14.1662 183.513 14.438 182.605 14.9815C181.704 15.5251 180.941 16.3139 180.318 17.348C179.702 18.3755 179.274 19.625 179.036 21.0966C178.797 22.5019 178.804 23.6752 179.055 24.6165C179.314 25.5578 179.775 26.2704 180.438 26.7543C181.107 27.2315 181.939 27.4702 182.933 27.4702C184.014 27.4702 185.001 27.205 185.896 26.6747C186.798 26.1378 187.557 25.3589 188.173 24.3381C188.79 23.3106 189.221 22.0611 189.466 20.5895ZM211.249 10.6364H215.554L213.367 23.8608C213.122 25.3456 212.555 26.6449 211.667 27.7585C210.778 28.8722 209.648 29.7405 208.276 30.3636C206.904 30.9801 205.373 31.2884 203.682 31.2884C201.992 31.2884 200.567 30.9801 199.407 30.3636C198.247 29.7405 197.408 28.8722 196.891 27.7585C196.374 26.6449 196.238 25.3456 196.483 23.8608L198.671 10.6364H202.976L200.838 23.4929C200.719 24.2685 200.779 24.9579 201.017 25.5611C201.263 26.1643 201.667 26.6383 202.231 26.983C202.794 27.3277 203.49 27.5 204.319 27.5C205.154 27.5 205.909 27.3277 206.586 26.983C207.268 26.6383 207.829 26.1643 208.266 25.5611C208.71 24.9579 208.992 24.2685 209.111 23.4929L211.249 10.6364ZM229.149 16.5526C229.182 15.724 228.94 15.0843 228.423 14.6335C227.913 14.1828 227.141 13.9574 226.107 13.9574C225.404 13.9574 224.794 14.0568 224.277 14.2557C223.76 14.4479 223.346 14.7164 223.034 15.0611C222.729 15.3991 222.54 15.7902 222.467 16.2344C222.394 16.599 222.418 16.9171 222.537 17.1889C222.663 17.4607 222.858 17.696 223.124 17.8949C223.395 18.0871 223.717 18.2562 224.088 18.402C224.459 18.5412 224.854 18.6605 225.271 18.7599L227.021 19.1974C227.876 19.3963 228.645 19.6615 229.328 19.9929C230.018 20.3243 230.594 20.732 231.058 21.2159C231.529 21.6998 231.86 22.2699 232.053 22.9261C232.245 23.5824 232.271 24.3348 232.132 25.1832C231.92 26.4295 231.426 27.5099 230.651 28.4247C229.875 29.3329 228.858 30.0388 227.598 30.5426C226.339 31.0398 224.88 31.2884 223.223 31.2884C221.579 31.2884 220.19 31.0365 219.057 30.5327C217.923 30.0289 217.098 29.2831 216.581 28.2955C216.071 27.3011 215.918 26.0715 216.124 24.6065H220.29C220.217 25.2893 220.316 25.8594 220.588 26.3168C220.867 26.7675 221.281 27.1089 221.831 27.3409C222.381 27.5663 223.028 27.679 223.77 27.679C224.506 27.679 225.159 27.5729 225.729 27.3608C226.305 27.1487 226.773 26.8537 227.131 26.4759C227.489 26.098 227.707 25.6638 227.787 25.1733C227.867 24.7159 227.797 24.3314 227.578 24.0199C227.359 23.7083 227.008 23.4432 226.524 23.2244C226.047 22.9991 225.454 22.8002 224.744 22.6278L222.617 22.071C220.973 21.6534 219.73 21.0005 218.888 20.1122C218.046 19.224 217.744 18.0275 217.983 16.5227C218.195 15.2898 218.709 14.2126 219.524 13.2912C220.346 12.3632 221.38 11.6439 222.626 11.1335C223.879 10.6165 225.248 10.358 226.733 10.358C228.244 10.358 229.52 10.6198 230.561 11.1435C231.602 11.6605 232.361 12.383 232.838 13.3111C233.315 14.2391 233.461 15.3196 233.276 16.5526H229.149ZM234.064 31L237.444 10.6364H251.166L250.569 14.1861H241.153L240.358 19.0384H249.068L248.471 22.5881H239.761L238.966 27.4503H248.422L247.825 31H234.064Z" fill="#FF6600"/>
</svg>
